<?xml version="1.0" encoding="UTF-8" standalone="no"?>
<!-- Created with Inkscape (http://www.inkscape.org/) -->

<svg
   width="210mm"
   height="297mm"
   viewBox="0 0 210 297"
   version="1.1"
   id="svg341"
   sodipodi:docname="drawing_BIRD.svg"
   inkscape:version="1.2.2 (732a01da63, 2022-12-09)"
   xmlns:inkscape="http://www.inkscape.org/namespaces/inkscape"
   xmlns:sodipodi="http://sodipodi.sourceforge.net/DTD/sodipodi-0.dtd"
   xmlns="http://www.w3.org/2000/svg"
   xmlns:svg="http://www.w3.org/2000/svg">
  <sodipodi:namedview
     id="namedview484"
     pagecolor="#ffffff"
     bordercolor="#000000"
     borderopacity="0.25"
     inkscape:showpageshadow="2"
     inkscape:pageopacity="0.0"
     inkscape:pagecheckerboard="0"
     inkscape:deskcolor="#d1d1d1"
     inkscape:document-units="mm"
     showgrid="false"
     inkscape:zoom="0.73851712"
     inkscape:cx="303.31051"
     inkscape:cy="561.93687"
     inkscape:window-width="1920"
     inkscape:window-height="1009"
     inkscape:window-x="-8"
     inkscape:window-y="-8"
     inkscape:window-maximized="1"
     inkscape:current-layer="layer1" />
  <defs
     id="defs338" />
  <g
     id="layer1">
    <path
       style="fill:#3194d5;fill-opacity:1;stroke-width:0.405702"
       d="m 115.81098,130.22511 c -0.98672,-2.67791 -2.03319,-9.28235 -2.06732,-11.11572 -0.0543,-2.9192 1.5908,-6.36021 5.3032,-6.17547 2.62306,0.13075 11.09503,-0.77313 11.15662,-0.82391 1.83603,-1.51316 1.30681,-4.24426 2.60073,-5.44866 1.19998,-1.11702 1.30128,-0.82175 1.70781,-1.47115 0.36647,-0.58555 -0.0746,-1.37243 0.17435,-2.03408 0.29387,-0.78 1.28211,-0.93139 1.41137,-1.76789 0.11705,-0.75537 -0.90443,-1.477349 -0.83529,-2.240388 0.11459,-1.263052 2.09374,-1.907259 1.82901,-2.684582 -0.9469,-2.780886 -4.66049,-3.626736 -5.01175,-6.584271 -0.33437,-2.813601 2.80091,-4.447801 3.34662,-7.149554 0.22966,-1.138337 0.13878,-1.608732 0.0899,-2.953596 -0.10422,-2.867635 -6.69848,-7.732533 -4.48886,-7.678761 5.10026,0.124451 9.26073,3.168682 13.43552,5.6972 4.72435,3.288459 8.39373,6.380422 11.40445,9.820429 1.53964,1.99343 2.76545,3.855213 2.90809,5.660757 -0.54858,3.05468 -3.86502,6.339412 -3.86502,6.793006 0,0.45369 2.33328,1.06482 5.08461,0.68921 2.75142,-0.37598 6.52798,-1.23995 8.62275,-1.062357 2.22715,-2.1e-4 3.29793,0.490457 4.61782,1.157927 0.73113,0.4957 1.25219,0.73463 2.23594,2.10995 0.22275,0.31191 0.4781,1.2055 -0.0445,1.59529 -0.7729,0.57594 -6.96508,0.9515 -10.02603,2.9694 l -8.51262,5.61192 c -3.0365,2.72334 -4.78866,3.70508 -7.62933,4.80729 -3.67817,1.44254 -9.23435,0.53446 -11.13478,1.1082 -1.90038,0.57384 -2.79558,1.00995 -3.64355,2.03455 -1.99492,2.41063 -5.12852,6.10248 -5.92147,6.79242 -1.97235,1.71643 -5.31037,3.36345 -6.62296,3.41528 0,0 -1.8826,0.22999 -3.60849,-0.0105 -0.866,-0.1213 -2.17755,-0.13863 -2.51671,-1.05988 z"
       id="path1370-2-2-8" />
  </g>
</svg>
